<?xml version="1.0" encoding="UTF-8" standalone="no"?>
<!-- Created with Inkscape (http://www.inkscape.org/) -->

<svg
   xmlns:dc="http://purl.org/dc/elements/1.1/"
   xmlns:cc="http://creativecommons.org/ns#"
   xmlns:rdf="http://www.w3.org/1999/02/22-rdf-syntax-ns#"
   xmlns:svg="http://www.w3.org/2000/svg"
   xmlns="http://www.w3.org/2000/svg"
   xmlns:sodipodi="http://sodipodi.sourceforge.net/DTD/sodipodi-0.dtd"
   xmlns:inkscape="http://www.inkscape.org/namespaces/inkscape"
   width="277.67801"
   height="65.431999"
   id="xoreosLogoGrey"
   version="1.1"
   inkscape:version="0.92.2 2405546, 2018-03-11"
   sodipodi:docname="phaethon-grey.svg">
  <title
     id="title">xoreos Logo</title>
  <defs
     id="defs" />
  <sodipodi:namedview
     id="base"
     pagecolor="#000000"
     bordercolor="#666666"
     borderopacity="1.0"
     inkscape:pageopacity="0"
     inkscape:pageshadow="2"
     inkscape:zoom="2.2922696"
     inkscape:cx="139.39306"
     inkscape:cy="39.22567"
     inkscape:document-units="px"
     inkscape:current-layer="layer1"
     showgrid="false"
     fit-margin-top="0"
     inkscape:window-width="1305"
     inkscape:window-height="848"
     inkscape:window-x="0"
     inkscape:window-y="48"
     inkscape:window-maximized="0"
     fit-margin-left="0"
     fit-margin-right="0"
     fit-margin-bottom="0"
     inkscape:measure-start="18.9712,-21.8246"
     inkscape:measure-end="18.9712,-37.2483" />
  <metadata
     id="metadata">
    <rdf:RDF>
      <cc:Work
         rdf:about="">
        <dc:format>image/svg+xml</dc:format>
        <dc:type
           rdf:resource="http://purl.org/dc/dcmitype/StillImage" />
        <dc:title>xoreos Logo</dc:title>
        <cc:license
           rdf:resource="http://creativecommons.org/licenses/by-sa/4.0/" />
        <dc:date>2013-08-06</dc:date>
        <dc:creator>
          <cc:Agent>
            <dc:title>Sven Hesse (DrMcCoy)</dc:title>
          </cc:Agent>
        </dc:creator>
        <dc:contributor>
          <cc:Agent>
            <dc:title>Alex Bevilacqua</dc:title>
          </cc:Agent>
        </dc:contributor>
        <dc:description>The word &quot;xoreos&quot; rendered in the Rezland font in dark grey on a light grey background.</dc:description>
      </cc:Work>
      <cc:License
         rdf:about="http://creativecommons.org/licenses/by-sa/4.0/">
        <cc:permits
           rdf:resource="http://creativecommons.org/ns#Reproduction" />
        <cc:permits
           rdf:resource="http://creativecommons.org/ns#Distribution" />
        <cc:requires
           rdf:resource="http://creativecommons.org/ns#Notice" />
        <cc:requires
           rdf:resource="http://creativecommons.org/ns#Attribution" />
        <cc:permits
           rdf:resource="http://creativecommons.org/ns#DerivativeWorks" />
        <cc:requires
           rdf:resource="http://creativecommons.org/ns#ShareAlike" />
      </cc:License>
    </rdf:RDF>
  </metadata>
  <g
     inkscape:label="Layer 1"
     inkscape:groupmode="layer"
     id="layer1"
     transform="translate(4.2857141,-22.801687)">
    <rect
       style="fill:#666666;fill-opacity:1;stroke:none;stroke-width:1.28701985"
       id="background"
       width="277.67801"
       height="65.431999"
       x="-4.2857141"
       y="22.801687" />
    <g
       id="g888"
       transform="translate(0,6.4799995)">
      <path
         d="m 21.842353,26.393687 q 3.384,0 6.264,1.296 2.952,1.224 5.184,3.456 2.232,2.16 3.456,5.112 1.296,2.88 1.296,6.264 0,3.312 -1.296,6.264 -1.224,2.952 -3.456,5.184 -2.232,2.232 -5.184,3.528 -2.88,1.224 -6.264,1.224 h -9.72 v 12.96 H 5.7143531 v -29.16 q 0,-3.384 1.224,-6.264 1.296,-2.952 3.4559999,-5.112 2.232,-2.232 5.184,-3.456 2.952,-1.296 6.264,-1.296 z m 0,25.92 q 2.016,0 3.816,-0.72 1.8,-0.792 3.096,-2.088 1.368,-1.368 2.088,-3.168 0.792,-1.8 0.792,-3.816 0,-2.016 -0.792,-3.744 -0.72,-1.8 -2.088,-3.096 -1.296,-1.368 -3.096,-2.088 -1.8,-0.792 -3.816,-0.792 -2.016,0 -3.816,0.792 -1.728,0.72 -3.096,2.088 -1.296,1.296 -2.088,3.096 -0.72,1.728 -0.72,3.744 v 9.792 z"
         style="font-style:normal;font-variant:normal;font-weight:normal;font-stretch:normal;font-size:72px;line-height:25px;font-family:REZ;-inkscape-font-specification:'REZ, Normal';font-variant-ligatures:normal;font-variant-caps:normal;font-variant-numeric:normal;font-feature-settings:normal;text-align:start;letter-spacing:0px;word-spacing:0px;writing-mode:lr-tb;text-anchor:start;fill:#282828;fill-opacity:1;stroke:none;stroke-width:1px;stroke-linecap:butt;stroke-linejoin:miter;stroke-opacity:1"
         id="path844"
         inkscape:connector-curvature="0" />
      <g
         transform="translate(0,6.4799963)"
         id="g868"
         style="font-style:normal;font-variant:normal;font-weight:normal;font-stretch:normal;font-size:medium;line-height:25px;font-family:'DejaVu Serif';-inkscape-font-specification:'DejaVu Serif, Normal';text-align:start;letter-spacing:0px;word-spacing:0px;writing-mode:lr-tb;text-anchor:start;fill:#282828;fill-opacity:1;stroke:none;stroke-width:1px;stroke-linecap:butt;stroke-linejoin:miter;stroke-opacity:1">
        <path
           id="path846"
           style="font-style:normal;font-variant:normal;font-weight:normal;font-stretch:normal;font-size:72px;font-family:REZ;-inkscape-font-specification:'REZ, Normal';font-variant-ligatures:normal;font-variant-caps:normal;font-variant-numeric:normal;font-feature-settings:normal;text-align:start;writing-mode:lr-tb;text-anchor:start;fill:#282828;fill-opacity:1"
           d="m 56.295478,32.801691 q 3.384,0 6.264,1.296 2.952,1.224 5.184,3.456 2.232,2.16 3.456,5.112 1.296,2.88 1.296,6.264 v 16.2 h -6.408 v -16.2 q 0,-2.016 -0.792,-3.744 -0.72,-1.8 -2.088,-3.096 -1.296,-1.368 -3.096,-2.088 -1.8,-0.792 -3.816,-0.792 -2.016,0 -3.816,0.792 -1.728,0.72 -3.096,2.088 -1.296,1.296 -2.088,3.096 -0.72,1.728 -0.72,3.744 v 16.2 h -6.408 v -45.288 h 6.408 v 16.272 q 2.016,-1.584 4.464,-2.448 2.52,-0.864 5.256,-0.864 z"
           inkscape:connector-curvature="0" />
        <path
           id="path848"
           style="font-style:normal;font-variant:normal;font-weight:normal;font-stretch:normal;font-size:72px;font-family:REZ;-inkscape-font-specification:'REZ, Normal';font-variant-ligatures:normal;font-variant-caps:normal;font-variant-numeric:normal;font-feature-settings:normal;text-align:start;writing-mode:lr-tb;text-anchor:start;fill:#282828;fill-opacity:1"
           d="m 90.535978,32.801691 q 3.384,0 6.264,1.296 2.952,1.224 5.112002,3.456 2.232,2.16 3.456,5.112 1.296,2.88 1.296,6.264 v 16.2 H 90.535978 q -3.312,0 -6.264,-1.224 -2.952,-1.296 -5.184,-3.528 -2.232,-2.232 -3.528,-5.184 -1.224,-2.952 -1.224,-6.264 0,-3.384 1.224,-6.264 1.296,-2.952 3.528,-5.112 2.232,-2.232 5.184,-3.456 2.952,-1.296 6.264,-1.296 z m 9.720002,25.92 v -9.792 q 0,-2.016 -0.792002,-3.744 -0.72,-1.8 -2.088,-3.096 -1.296,-1.368 -3.096,-2.088 -1.728,-0.792 -3.744,-0.792 -2.016,0 -3.816,0.792 -1.8,0.72 -3.168,2.088 -1.296,1.296 -2.088,3.096 -0.72,1.728 -0.72,3.744 0,2.016 0.72,3.816 0.792,1.8 2.088,3.168 1.368,1.296 3.168,2.088 1.8,0.72 3.816,0.72 z"
           inkscape:connector-curvature="0" />
        <path
           id="path850"
           style="font-style:normal;font-variant:normal;font-weight:normal;font-stretch:normal;font-size:72px;font-family:REZ;-inkscape-font-specification:'REZ, Normal';font-variant-ligatures:normal;font-variant-caps:normal;font-variant-numeric:normal;font-feature-settings:normal;text-align:start;writing-mode:lr-tb;text-anchor:start;fill:#282828;fill-opacity:1"
           d="m 133.92385,53.753691 4.536,4.536 -2.232,2.232 q -2.304,2.304 -5.256,3.528 -2.952,1.224 -6.192,1.224 -3.24,0 -6.192,-1.224 -2.952,-1.224 -5.256,-3.528 -2.376,-2.376 -3.528,-5.328 -1.152,-3.024 -1.152,-6.12 0,-3.096 1.152,-6.048 1.152,-2.952 3.528,-5.328 2.376,-2.376 5.328,-3.528 3.024,-1.224 6.12,-1.224 3.096,0 6.048,1.224 3.024,1.152 5.4,3.528 l 2.232,2.232 -17.928,17.928 q 2.736,1.368 5.76,0.936 3.096,-0.504 5.4,-2.808 z m -16.056,-11.592 q -2.88,2.88 -2.88,6.912 0,2.232 1.008,4.248 0.864,-0.864 2.592,-2.592 1.8,-1.8 3.744,-3.744 2.016,-2.016 3.816,-3.816 1.872,-1.8 2.88,-2.808 -2.736,-1.368 -5.832,-0.936 -3.024,0.432 -5.328,2.736 z"
           inkscape:connector-curvature="0" />
        <path
           id="path852"
           style="font-style:normal;font-variant:normal;font-weight:normal;font-stretch:normal;font-size:72px;font-family:REZ;-inkscape-font-specification:'REZ, Normal';font-variant-ligatures:normal;font-variant-caps:normal;font-variant-numeric:normal;font-feature-settings:normal;text-align:start;writing-mode:lr-tb;text-anchor:start;fill:#282828;fill-opacity:1"
           d="m 160.01035,58.721691 v 6.408 h -3.168 q -3.312,0 -6.264,-1.224 -2.952,-1.296 -5.184,-3.528 -2.232,-2.232 -3.528,-5.184 -1.224,-2.952 -1.224,-6.264 v -29.088 h 6.408 v 19.44 h 12.96 v 6.408 h -12.96 v 3.24 q 0,2.016 0.72,3.816 0.792,1.8 2.088,3.168 1.368,1.296 3.168,2.088 1.8,0.72 3.816,0.72 z"
           inkscape:connector-curvature="0" />
        <path
           id="path854"
           style="font-style:normal;font-variant:normal;font-weight:normal;font-stretch:normal;font-size:72px;font-family:REZ;-inkscape-font-specification:'REZ, Normal';font-variant-ligatures:normal;font-variant-caps:normal;font-variant-numeric:normal;font-feature-settings:normal;text-align:start;writing-mode:lr-tb;text-anchor:start;fill:#282828;fill-opacity:1"
           d="m 178.4986,32.801691 q 3.384,0 6.264,1.296 2.952,1.224 5.184,3.456 2.232,2.16 3.456,5.112 1.296,2.88 1.296,6.264 v 16.2 h -6.408 v -16.2 q 0,-2.016 -0.792,-3.744 -0.72,-1.8 -2.088,-3.096 -1.296,-1.368 -3.096,-2.088 -1.8,-0.792 -3.816,-0.792 -2.016,0 -3.816,0.792 -1.728,0.72 -3.096,2.088 -1.296,1.296 -2.088,3.096 -0.72,1.728 -0.72,3.744 v 16.2 h -6.408 v -45.288 h 6.408 v 16.272 q 2.016,-1.584 4.464,-2.448 2.52,-0.864 5.256,-0.864 z"
           inkscape:connector-curvature="0" />
        <path
           id="path856"
           style="font-style:normal;font-variant:normal;font-weight:normal;font-stretch:normal;font-size:72px;font-family:REZ;-inkscape-font-specification:'REZ, Normal';font-variant-ligatures:normal;font-variant-caps:normal;font-variant-numeric:normal;font-feature-settings:normal;text-align:start;writing-mode:lr-tb;text-anchor:start;fill:#282828;fill-opacity:1"
           d="m 196.6111,49.073691 q 0,-3.384 1.224,-6.264 1.296,-2.952 3.456,-5.112 2.232,-2.232 5.184,-3.456 2.952,-1.296 6.264,-1.296 3.384,0 6.264,1.296 2.952,1.224 5.184,3.456 2.232,2.16 3.456,5.112 1.296,2.88 1.296,6.264 0,3.312 -1.296,6.264 -1.224,2.952 -3.456,5.184 -2.232,2.232 -5.184,3.528 -2.88,1.224 -6.264,1.224 -3.312,0 -6.264,-1.224 -2.952,-1.296 -5.184,-3.528 -2.16,-2.232 -3.456,-5.184 -1.224,-2.952 -1.224,-6.264 z m 6.336,0 q 0,2.016 0.72,3.816 0.792,1.8 2.088,3.168 1.368,1.296 3.168,2.088 1.8,0.72 3.816,0.72 2.016,0 3.816,-0.72 1.8,-0.792 3.096,-2.088 1.368,-1.368 2.088,-3.168 0.792,-1.8 0.792,-3.816 0,-2.016 -0.792,-3.744 -0.72,-1.8 -2.088,-3.096 -1.296,-1.368 -3.096,-2.088 -1.8,-0.792 -3.816,-0.792 -2.016,0 -3.816,0.792 -1.8,0.72 -3.168,2.088 -1.296,1.296 -2.088,3.096 -0.72,1.728 -0.72,3.744 z"
           inkscape:connector-curvature="0" />
        <path
           id="path858"
           style="font-style:normal;font-variant:normal;font-weight:normal;font-stretch:normal;font-size:72px;font-family:REZ;-inkscape-font-specification:'REZ, Normal';font-variant-ligatures:normal;font-variant-caps:normal;font-variant-numeric:normal;font-feature-settings:normal;text-align:start;writing-mode:lr-tb;text-anchor:start;fill:#282828;fill-opacity:1"
           d="m 231.06423,49.001691 q 0,-3.384 1.224,-6.264 1.296,-2.952 3.456,-5.112 2.232,-2.232 5.184,-3.456 2.952,-1.296 6.264,-1.296 3.384,0 6.264,1.296 2.952,1.224 5.184,3.456 2.232,2.16 3.456,5.112 1.296,2.88 1.296,6.264 v 16.2 h -6.408 v -16.2 q 0,-2.016 -0.792,-3.744 -0.72,-1.8 -2.088,-3.096 -1.296,-1.368 -3.096,-2.088 -1.8,-0.792 -3.816,-0.792 -2.016,0 -3.816,0.792 -1.728,0.72 -3.096,2.088 -1.296,1.296 -2.088,3.096 -0.72,1.728 -0.72,3.744 v 16.2 h -6.408 z"
           inkscape:connector-curvature="0" />
      </g>
    </g>
  </g>
</svg>
