<?xml version="1.0" encoding="UTF-8" standalone="no"?>
<!-- Created with Inkscape (http://www.inkscape.org/) -->

<svg
   xmlns:dc="http://purl.org/dc/elements/1.1/"
   xmlns:cc="http://creativecommons.org/ns#"
   xmlns:rdf="http://www.w3.org/1999/02/22-rdf-syntax-ns#"
   xmlns:svg="http://www.w3.org/2000/svg"
   xmlns="http://www.w3.org/2000/svg"
   xmlns:sodipodi="http://sodipodi.sourceforge.net/DTD/sodipodi-0.dtd"
   xmlns:inkscape="http://www.inkscape.org/namespaces/inkscape"
   width="209.05"
   height="52.470001"
   id="xoreosLogoTransparent"
   version="1.1"
   inkscape:version="0.48.4 r9939"
   sodipodi:docname="logo-transparent.svg">
  <title
     id="title">xoreos Logo</title>
  <defs
     id="defs" />
  <sodipodi:namedview
     id="base"
     pagecolor="#000000"
     bordercolor="#666666"
     borderopacity="1.0"
     inkscape:pageopacity="0"
     inkscape:pageshadow="2"
     inkscape:zoom="3.1445312"
     inkscape:cx="109.68816"
     inkscape:cy="36.729348"
     inkscape:document-units="px"
     inkscape:current-layer="layer1"
     showgrid="false"
     fit-margin-top="10"
     inkscape:window-width="1272"
     inkscape:window-height="1001"
     inkscape:window-x="0"
     inkscape:window-y="0"
     inkscape:window-maximized="1"
     fit-margin-left="10"
     fit-margin-right="10"
     fit-margin-bottom="10" />
  <metadata
     id="metadata">
    <rdf:RDF>
      <cc:Work
         rdf:about="">
        <dc:format>image/svg+xml</dc:format>
        <dc:type
           rdf:resource="http://purl.org/dc/dcmitype/StillImage" />
        <dc:title>xoreos Logo</dc:title>
        <cc:license
           rdf:resource="http://creativecommons.org/licenses/by-sa/3.0/" />
        <dc:date>2013-08-06</dc:date>
        <dc:creator>
          <cc:Agent>
            <dc:title>Sven Hesse (DrMcCoy)</dc:title>
          </cc:Agent>
        </dc:creator>
        <dc:contributor>
          <cc:Agent>
            <dc:title>Alex Bevilacqua</dc:title>
          </cc:Agent>
        </dc:contributor>
        <dc:description>The word &quot;xoreos&quot; rendered in the Rezland font in dark grey on a transparent background.</dc:description>
      </cc:Work>
      <cc:License
         rdf:about="http://creativecommons.org/licenses/by-sa/3.0/">
        <cc:permits
           rdf:resource="http://creativecommons.org/ns#Reproduction" />
        <cc:permits
           rdf:resource="http://creativecommons.org/ns#Distribution" />
        <cc:requires
           rdf:resource="http://creativecommons.org/ns#Notice" />
        <cc:requires
           rdf:resource="http://creativecommons.org/ns#Attribution" />
        <cc:permits
           rdf:resource="http://creativecommons.org/ns#DerivativeWorks" />
        <cc:requires
           rdf:resource="http://creativecommons.org/ns#ShareAlike" />
      </cc:License>
    </rdf:RDF>
  </metadata>
  <g
     inkscape:label="Layer 1"
     inkscape:groupmode="layer"
     id="layer1"
     transform="translate(4.2857141,2.1786739)">
    <g
       id="xoreos">
      <path
         d="m 34.874286,14.299326 c -1.344028,2.6e-5 -2.616027,0.264026 -3.816,0.792 -1.200024,0.480025 -2.256023,1.176024 -3.168,2.088 -0.864021,0.864022 -1.560021,1.896021 -2.088,3.096 -0.48002,1.152019 -0.72002,2.400018 -0.72,3.744 -2e-5,1.344015 0.23998,2.616014 0.72,3.816 0.527979,1.200011 1.223979,2.25601 2.088,3.168 0.911977,0.864008 1.967976,1.560008 3.168,2.088 1.199973,0.480007 2.471972,0.720006 3.816,0.72 l 3.168,0 0,6.408 -3.168,0 c -2.688027,0 -5.160024,-0.575999 -7.416,-1.728 -2.20802,-1.199997 -4.056018,-2.807995 -5.544,-4.824 -1.488015,2.016005 -3.360013,3.624003 -5.616,4.824 -2.256008,1.152001 -4.704006,1.728 -7.3440001,1.728 l -3.24,0 0,-6.408 3.24,0 c 1.3439951,6e-6 2.5919941,-0.239993 3.7440001,-0.72 1.199992,-0.527992 2.231991,-1.223992 3.096,-2.088 0.911989,-0.91199 1.607988,-1.967989 2.088,-3.168 0.527987,-1.199986 0.791987,-2.471985 0.792,-3.816 -1.3e-5,-1.343982 -0.264013,-2.591981 -0.792,-3.744 -0.480012,-1.199979 -1.176011,-2.231978 -2.088,-3.096 -0.864009,-0.911976 -1.896008,-1.607975 -3.096,-2.088 -1.152006,-0.527974 -2.400005,-0.791974 -3.7440001,-0.792 l -3.24,0 0,-6.408 3.24,0 c 2.6399941,3.23e-5 5.0879921,0.6000317 7.3440001,1.8 2.255987,1.152029 4.127985,2.736028 5.616,4.752 1.487982,-2.015972 3.33598,-3.599971 5.544,-4.752 2.255976,-1.1999683 4.727973,-1.7999677 7.416,-1.8 l 3.168,0 0,6.408 -3.168,0 0,0"
         id="x"
         inkscape:connector-curvature="0"
         style="fill:#282828;fill-opacity:1;stroke:none" />
      <path
         d="m 40.167411,24.091326 c 0,-2.255982 0.407999,-4.34398 1.224,-6.264 0.863998,-1.967976 2.015997,-3.671974 3.456,-5.112 1.487994,-1.487971 3.215992,-2.63997 5.184,-3.456 1.967988,-0.8639682 4.055986,-1.2959677 6.264,-1.296 2.255981,3.23e-5 4.343979,0.4320318 6.264,1.296 1.967975,0.81603 3.695974,1.968029 5.184,3.456 1.487971,1.440026 2.63997,3.144024 3.456,5.112 0.863968,1.92002 1.295968,4.008018 1.296,6.264 -3.2e-5,2.208014 -0.432032,4.296012 -1.296,6.264 -0.81603,1.968008 -1.968029,3.696006 -3.456,5.184 -1.488026,1.488003 -3.216025,2.664002 -5.184,3.528 -1.920021,0.816 -4.008019,1.224 -6.264,1.224 -2.208014,0 -4.296012,-0.408 -6.264,-1.224 -1.968008,-0.863998 -3.696006,-2.039997 -5.184,-3.528 -1.440003,-1.487994 -2.592002,-3.215992 -3.456,-5.184 -0.816001,-1.967988 -1.224,-4.055986 -1.224,-6.264 m 6.336,0 c -6e-6,1.344015 0.239993,2.616014 0.72,3.816 0.527992,1.200011 1.223992,2.25601 2.088,3.168 0.91199,0.864008 1.967989,1.560008 3.168,2.088 1.199986,0.480007 2.471985,0.720006 3.816,0.72 1.343982,6e-6 2.615981,-0.239993 3.816,-0.72 1.199979,-0.527992 2.231978,-1.223992 3.096,-2.088 0.911976,-0.91199 1.607975,-1.967989 2.088,-3.168 0.527974,-1.199986 0.791974,-2.471985 0.792,-3.816 -2.6e-5,-1.343983 -0.264026,-2.591981 -0.792,-3.744 -0.480025,-1.199979 -1.176024,-2.231978 -2.088,-3.096 -0.864022,-0.911976 -1.896021,-1.607975 -3.096,-2.088 -1.200019,-0.527974 -2.472018,-0.791974 -3.816,-0.792 -1.344015,2.6e-5 -2.616014,0.264026 -3.816,0.792 -1.200011,0.480025 -2.25601,1.176024 -3.168,2.088 -0.864008,0.864022 -1.560008,1.896021 -2.088,3.096 -0.480007,1.152019 -0.720006,2.400017 -0.72,3.744"
         id="o1"
         inkscape:connector-curvature="0"
         style="fill:#282828;fill-opacity:1;stroke:none" />
      <path
         d="m 94.060536,7.819326 0,6.408 -3.24,0 c -1.344015,2.6e-5 -2.616014,0.264026 -3.816,0.792 -1.152011,0.480025 -2.18401,1.176024 -3.096,2.088 -0.864009,0.864022 -1.560008,1.896021 -2.088,3.096 -0.480007,1.152019 -0.720007,2.400018 -0.72,3.744 l 0,16.2 -6.48,0 0,-16.2 c 0,-2.255981 0.407999,-4.343979 1.224,-6.264 0.863998,-1.967975 2.039997,-3.671974 3.528,-5.112 1.487994,-1.487971 3.215992,-2.6399697 5.184,-3.456 1.967988,-0.863968 4.055986,-1.2959676 6.264,-1.296 l 3.24,0"
         id="r"
         inkscape:connector-curvature="0"
         style="fill:#282828;fill-opacity:1;stroke:none" />
      <path
         d="m 121.33954,28.771326 4.536,4.536 -2.232,2.232 c -1.53603,1.536003 -3.28803,2.712002 -5.256,3.528 -1.96802,0.816 -4.03202,1.224 -6.192,1.224 -2.16002,0 -4.22402,-0.408 -6.192,-1.224 -1.96801,-0.815998 -3.72001,-1.991997 -5.256,-3.528 -1.584007,-1.583994 -2.760006,-3.359992 -3.528004,-5.328 -0.768001,-2.015988 -1.152,-4.055986 -1.152,-6.12 0,-2.063982 0.383999,-4.07998 1.152,-6.048 0.767998,-1.967976 1.943997,-3.743974 3.528004,-5.328 1.58399,-1.583971 3.35999,-2.7599697 5.328,-3.528 2.01598,-0.8159681 4.05598,-1.2239677 6.12,-1.224 2.06398,3.23e-5 4.07998,0.4080319 6.048,1.224 2.01597,0.7680303 3.81597,1.944029 5.4,3.528 l 2.232,2.232 -17.928,17.928 c 1.82398,0.912006 3.74398,1.224006 5.76,0.936 2.06398,-0.335993 3.86397,-1.271992 5.4,-2.808 l 2.232,-2.232 m -16.056,-11.592 c -1.92001,1.920021 -2.88001,4.224019 -2.88,6.912 -1e-5,1.488015 0.33599,2.904013 1.008,4.248 0.57599,-0.575988 1.43999,-1.439987 2.592,-2.592 1.19998,-1.199984 2.44798,-2.447983 3.744,-3.744 1.34398,-1.34398 2.61598,-2.615979 3.816,-3.816 1.24798,-1.199977 2.20798,-2.135976 2.88,-2.808 -1.82402,-0.911974 -3.76802,-1.223974 -5.832,-0.936 -2.01602,0.288026 -3.79201,1.200025 -5.328,2.736"
         id="e"
         style="fill:#282828;fill-opacity:1;stroke:none"
         inkscape:connector-curvature="0" />
      <path
         d="m 128.05804,24.091326 c 0,-2.255982 0.408,-4.34398 1.224,-6.264 0.86399,-1.967976 2.01599,-3.671974 3.456,-5.112 1.48799,-1.487971 3.21599,-2.63997 5.184,-3.456 1.96798,-0.8639682 4.05598,-1.2959677 6.264,-1.296 2.25598,3.23e-5 4.34398,0.4320318 6.264,1.296 1.96797,0.81603 3.69597,1.968029 5.184,3.456 1.48797,1.440026 2.63997,3.144024 3.456,5.112 0.86396,1.92002 1.29596,4.008018 1.296,6.264 -4e-5,2.208014 -0.43204,4.296012 -1.296,6.264 -0.81603,1.968008 -1.96803,3.696006 -3.456,5.184 -1.48803,1.488003 -3.21603,2.664002 -5.184,3.528 -1.92002,0.816 -4.00802,1.224 -6.264,1.224 -2.20802,0 -4.29602,-0.408 -6.264,-1.224 -1.96801,-0.863998 -3.69601,-2.039997 -5.184,-3.528 -1.44001,-1.487994 -2.59201,-3.215992 -3.456,-5.184 -0.816,-1.967988 -1.224,-4.055986 -1.224,-6.264 m 6.336,0 c -1e-5,1.344015 0.23999,2.616014 0.72,3.816 0.52799,1.200011 1.22399,2.25601 2.088,3.168 0.91199,0.864008 1.96798,1.560008 3.168,2.088 1.19998,0.480007 2.47198,0.720006 3.816,0.72 1.34398,6e-6 2.61598,-0.239993 3.816,-0.72 1.19997,-0.527992 2.23197,-1.223992 3.096,-2.088 0.91197,-0.91199 1.60797,-1.967989 2.088,-3.168 0.52797,-1.199986 0.79197,-2.471985 0.792,-3.816 -3e-5,-1.343983 -0.26403,-2.591981 -0.792,-3.744 -0.48003,-1.199979 -1.17603,-2.231978 -2.088,-3.096 -0.86403,-0.911976 -1.89603,-1.607975 -3.096,-2.088 -1.20002,-0.527974 -2.47202,-0.791974 -3.816,-0.792 -1.34402,2.6e-5 -2.61602,0.264026 -3.816,0.792 -1.20002,0.480025 -2.25601,1.176024 -3.168,2.088 -0.86401,0.864022 -1.56001,1.896021 -2.088,3.096 -0.48001,1.152019 -0.72001,2.400017 -0.72,3.744"
         id="o2"
         style="fill:#282828;fill-opacity:1;stroke:none"
         inkscape:connector-curvature="0" />
      <path
         d="m 191.59916,7.819326 0,6.408 -19.512,0 c -0.91201,2.6e-5 -1.68001,0.312026 -2.304,0.936 -0.62401,0.624024 -0.93601,1.392024 -0.936,2.304 -1e-5,0.912022 0.31199,1.704021 0.936,2.376 0.62399,0.62402 1.39199,0.936019 2.304,0.936 l 12.96,0 c 1.34398,1.9e-5 2.59198,0.264019 3.744,0.792 1.19997,0.480018 2.23197,1.152018 3.096,2.016 0.91197,0.864016 1.60797,1.896015 2.088,3.096 0.52797,1.152012 0.79197,2.400011 0.792,3.744 -3e-5,1.344008 -0.26403,2.616007 -0.792,3.816 -0.48003,1.152005 -1.17603,2.184004 -2.088,3.096 -0.86403,0.864002 -1.89603,1.560001 -3.096,2.088 -1.15202,0.48 -2.40002,0.72 -3.744,0.72 l -19.44,0 0,-6.408 19.44,0 c 0.95998,6e-6 1.75198,-0.311993 2.376,-0.936 0.62398,-0.623992 0.93598,-1.415991 0.936,-2.376 -2e-5,-0.911989 -0.31202,-1.679989 -0.936,-2.304 -0.62402,-0.623987 -1.41602,-0.935987 -2.376,-0.936 l -12.96,0 c -1.34401,1.3e-5 -2.61601,-0.239987 -3.816,-0.72 -1.152,-0.527986 -2.16,-1.223985 -3.024,-2.088 -0.864,-0.911983 -1.56,-1.943982 -2.088,-3.096 -0.48,-1.19998 -0.72,-2.471979 -0.72,-3.816 0,-1.343976 0.24,-2.591975 0.72,-3.744 0.528,-1.199972 1.224,-2.231971 2.088,-3.096 0.864,-0.8639695 1.872,-1.5359689 3.024,-2.016 1.19999,-0.5279678 2.47199,-0.7919676 3.816,-0.792 l 19.512,0"
         id="s"
         style="fill:#282828;fill-opacity:1;stroke:none"
         inkscape:connector-curvature="0" />
    </g>
  </g>
</svg>
